<mxfile host="app.diagrams.net" modified="2023-05-04T03:09:53.599Z" agent="Mozilla/5.0 (Windows NT 10.0; Win64; x64) AppleWebKit/537.36 (KHTML, like Gecko) Chrome/112.0.0.0 Safari/537.36 Edg/112.0.1722.64" etag="UZIdrQQmP2f3Ck_ZuK5I" version="21.2.3" type="github">
  <diagram name="第 1 页" id="_yepIGzJ4ome6x-WQbaT">
    <mxGraphModel dx="993" dy="573" grid="0" gridSize="10" guides="1" tooltips="1" connect="1" arrows="1" fold="1" page="1" pageScale="1" pageWidth="827" pageHeight="1169" math="0" shadow="0">
      <root>
        <mxCell id="0" />
        <mxCell id="1" parent="0" />
        <mxCell id="Oe3jXDS2hyijStB5_GK9-2" value="用户表" style="rounded=0;whiteSpace=wrap;html=1;" vertex="1" parent="1">
          <mxGeometry x="330" y="280" width="140" height="60" as="geometry" />
        </mxCell>
        <mxCell id="Oe3jXDS2hyijStB5_GK9-3" value="用户id" style="ellipse;whiteSpace=wrap;html=1;" vertex="1" parent="1">
          <mxGeometry x="200" y="190" width="110" height="50" as="geometry" />
        </mxCell>
        <mxCell id="Oe3jXDS2hyijStB5_GK9-5" value="用户名" style="ellipse;whiteSpace=wrap;html=1;" vertex="1" parent="1">
          <mxGeometry x="335" y="190" width="110" height="50" as="geometry" />
        </mxCell>
        <mxCell id="Oe3jXDS2hyijStB5_GK9-6" value="密码" style="ellipse;whiteSpace=wrap;html=1;" vertex="1" parent="1">
          <mxGeometry x="460" y="190" width="110" height="50" as="geometry" />
        </mxCell>
        <mxCell id="Oe3jXDS2hyijStB5_GK9-7" value="是否为系统管理员" style="ellipse;whiteSpace=wrap;html=1;" vertex="1" parent="1">
          <mxGeometry x="540" y="270" width="110" height="50" as="geometry" />
        </mxCell>
        <mxCell id="Oe3jXDS2hyijStB5_GK9-8" value="是否被删除" style="ellipse;whiteSpace=wrap;html=1;" vertex="1" parent="1">
          <mxGeometry x="140" y="300" width="110" height="50" as="geometry" />
        </mxCell>
        <mxCell id="Oe3jXDS2hyijStB5_GK9-9" value="创建时间" style="ellipse;whiteSpace=wrap;html=1;" vertex="1" parent="1">
          <mxGeometry x="280" y="380" width="110" height="50" as="geometry" />
        </mxCell>
        <mxCell id="Oe3jXDS2hyijStB5_GK9-10" value="最后一次修改时间" style="ellipse;whiteSpace=wrap;html=1;" vertex="1" parent="1">
          <mxGeometry x="430" y="380" width="110" height="50" as="geometry" />
        </mxCell>
        <mxCell id="Oe3jXDS2hyijStB5_GK9-11" value="" style="endArrow=none;html=1;rounded=0;entryX=0;entryY=0;entryDx=0;entryDy=0;exitX=1;exitY=1;exitDx=0;exitDy=0;" edge="1" parent="1" source="Oe3jXDS2hyijStB5_GK9-3" target="Oe3jXDS2hyijStB5_GK9-2">
          <mxGeometry width="50" height="50" relative="1" as="geometry">
            <mxPoint x="100" y="430" as="sourcePoint" />
            <mxPoint x="150" y="380" as="targetPoint" />
          </mxGeometry>
        </mxCell>
        <mxCell id="Oe3jXDS2hyijStB5_GK9-12" value="" style="endArrow=none;html=1;rounded=0;entryX=0;entryY=0.5;entryDx=0;entryDy=0;exitX=1;exitY=0.5;exitDx=0;exitDy=0;" edge="1" parent="1" source="Oe3jXDS2hyijStB5_GK9-8" target="Oe3jXDS2hyijStB5_GK9-2">
          <mxGeometry width="50" height="50" relative="1" as="geometry">
            <mxPoint x="110" y="440" as="sourcePoint" />
            <mxPoint x="160" y="390" as="targetPoint" />
          </mxGeometry>
        </mxCell>
        <mxCell id="Oe3jXDS2hyijStB5_GK9-13" value="" style="endArrow=none;html=1;rounded=0;entryX=0.5;entryY=0;entryDx=0;entryDy=0;exitX=0.596;exitY=0.988;exitDx=0;exitDy=0;exitPerimeter=0;" edge="1" parent="1" source="Oe3jXDS2hyijStB5_GK9-5" target="Oe3jXDS2hyijStB5_GK9-2">
          <mxGeometry width="50" height="50" relative="1" as="geometry">
            <mxPoint x="120" y="450" as="sourcePoint" />
            <mxPoint x="170" y="400" as="targetPoint" />
          </mxGeometry>
        </mxCell>
        <mxCell id="Oe3jXDS2hyijStB5_GK9-14" value="" style="endArrow=none;html=1;rounded=0;entryX=1;entryY=0;entryDx=0;entryDy=0;exitX=0.5;exitY=1;exitDx=0;exitDy=0;" edge="1" parent="1" source="Oe3jXDS2hyijStB5_GK9-6" target="Oe3jXDS2hyijStB5_GK9-2">
          <mxGeometry width="50" height="50" relative="1" as="geometry">
            <mxPoint x="130" y="460" as="sourcePoint" />
            <mxPoint x="180" y="410" as="targetPoint" />
          </mxGeometry>
        </mxCell>
        <mxCell id="Oe3jXDS2hyijStB5_GK9-15" value="" style="endArrow=none;html=1;rounded=0;entryX=1;entryY=0.5;entryDx=0;entryDy=0;exitX=0;exitY=0.5;exitDx=0;exitDy=0;" edge="1" parent="1" source="Oe3jXDS2hyijStB5_GK9-7" target="Oe3jXDS2hyijStB5_GK9-2">
          <mxGeometry width="50" height="50" relative="1" as="geometry">
            <mxPoint x="140" y="470" as="sourcePoint" />
            <mxPoint x="190" y="420" as="targetPoint" />
          </mxGeometry>
        </mxCell>
        <mxCell id="Oe3jXDS2hyijStB5_GK9-16" value="" style="endArrow=none;html=1;rounded=0;entryX=0.5;entryY=0;entryDx=0;entryDy=0;exitX=1;exitY=1;exitDx=0;exitDy=0;" edge="1" parent="1" source="Oe3jXDS2hyijStB5_GK9-2" target="Oe3jXDS2hyijStB5_GK9-10">
          <mxGeometry width="50" height="50" relative="1" as="geometry">
            <mxPoint x="150" y="480" as="sourcePoint" />
            <mxPoint x="200" y="430" as="targetPoint" />
          </mxGeometry>
        </mxCell>
        <mxCell id="Oe3jXDS2hyijStB5_GK9-17" value="" style="endArrow=none;html=1;rounded=0;entryX=0.5;entryY=0;entryDx=0;entryDy=0;exitX=0.25;exitY=1;exitDx=0;exitDy=0;" edge="1" parent="1" source="Oe3jXDS2hyijStB5_GK9-2" target="Oe3jXDS2hyijStB5_GK9-9">
          <mxGeometry width="50" height="50" relative="1" as="geometry">
            <mxPoint x="160" y="490" as="sourcePoint" />
            <mxPoint x="210" y="440" as="targetPoint" />
          </mxGeometry>
        </mxCell>
      </root>
    </mxGraphModel>
  </diagram>
</mxfile>
